<svg width="170" height="30" viewBox="0 0 170 30" fill="none" xmlns="http://www.w3.org/2000/svg">
<path d="M15.903 14.062C15.903 14.44 15.858 14.854 15.768 15.304H5.319C5.373 16.438 5.661 17.257 6.183 17.761C6.705 18.247 7.371 18.49 8.181 18.49C8.865 18.49 9.432 18.319 9.882 17.977C10.332 17.635 10.629 17.194 10.773 16.654H15.66C15.462 17.716 15.03 18.67 14.364 19.516C13.698 20.344 12.852 21.001 11.826 21.487C10.8 21.955 9.657 22.189 8.397 22.189C6.921 22.189 5.607 21.883 4.455 21.271C3.321 20.641 2.43 19.741 1.782 18.571C1.134 17.401 0.81 16.033 0.81 14.467C0.81 12.883 1.125 11.515 1.755 10.363C2.403 9.193 3.303 8.302 4.455 7.69C5.607 7.06 6.921 6.745 8.397 6.745C9.891 6.745 11.205 7.051 12.339 7.663C13.473 8.275 14.346 9.139 14.958 10.255C15.588 11.353 15.903 12.622 15.903 14.062ZM11.232 13.36C11.25 12.37 10.98 11.632 10.422 11.146C9.882 10.642 9.207 10.39 8.397 10.39C7.551 10.39 6.849 10.642 6.291 11.146C5.733 11.65 5.418 12.388 5.346 13.36H11.232ZM22.9268 2.02V22H18.3098V2.02H22.9268ZM40.9158 6.745C42.1578 6.745 43.2648 7.06 44.2368 7.69C45.2268 8.302 46.0008 9.193 46.5588 10.363C47.1348 11.515 47.4228 12.883 47.4228 14.467C47.4228 16.033 47.1348 17.401 46.5588 18.571C46.0008 19.741 45.2268 20.641 44.2368 21.271C43.2648 21.883 42.1578 22.189 40.9158 22.189C39.7638 22.189 38.7738 21.928 37.9458 21.406C37.1178 20.884 36.5148 20.173 36.1368 19.273V29.182H31.5198V6.934H36.1368V9.661C36.5148 8.761 37.1178 8.05 37.9458 7.528C38.7738 7.006 39.7638 6.745 40.9158 6.745ZM39.4308 10.795C38.4588 10.795 37.6578 11.128 37.0278 11.794C36.4158 12.442 36.1098 13.333 36.1098 14.467C36.1098 15.583 36.4158 16.474 37.0278 17.14C37.6578 17.806 38.4588 18.139 39.4308 18.139C40.4208 18.139 41.2128 17.815 41.8068 17.167C42.4188 16.519 42.7248 15.619 42.7248 14.467C42.7248 13.315 42.4188 12.415 41.8068 11.767C41.2128 11.119 40.4208 10.795 39.4308 10.795ZM64.1286 14.062C64.1286 14.44 64.0836 14.854 63.9936 15.304H53.5446C53.5986 16.438 53.8866 17.257 54.4086 17.761C54.9306 18.247 55.5966 18.49 56.4066 18.49C57.0906 18.49 57.6576 18.319 58.1076 17.977C58.5576 17.635 58.8546 17.194 58.9986 16.654H63.8856C63.6876 17.716 63.2556 18.67 62.5896 19.516C61.9236 20.344 61.0776 21.001 60.0516 21.487C59.0256 21.955 57.8826 22.189 56.6226 22.189C55.1466 22.189 53.8326 21.883 52.6806 21.271C51.5466 20.641 50.6556 19.741 50.0076 18.571C49.3596 17.401 49.0356 16.033 49.0356 14.467C49.0356 12.883 49.3506 11.515 49.9806 10.363C50.6286 9.193 51.5286 8.302 52.6806 7.69C53.8326 7.06 55.1466 6.745 56.6226 6.745C58.1166 6.745 59.4306 7.051 60.5646 7.663C61.6986 8.275 62.5716 9.139 63.1836 10.255C63.8136 11.353 64.1286 12.622 64.1286 14.062ZM59.4576 13.36C59.4756 12.37 59.2056 11.632 58.6476 11.146C58.1076 10.642 57.4326 10.39 56.6226 10.39C55.7766 10.39 55.0746 10.642 54.5166 11.146C53.9586 11.65 53.6436 12.388 53.5716 13.36H59.4576ZM71.1524 9.769C71.7284 8.851 72.4664 8.122 73.3664 7.582C74.2844 7.042 75.2744 6.772 76.3364 6.772V11.713H75.0134C73.7894 11.713 72.8354 11.974 72.1514 12.496C71.4854 13.018 71.1524 13.9 71.1524 15.142V22H66.5354V6.934H71.1524V9.769ZM77.8368 2.695C77.8368 1.993 78.0888 1.417 78.5928 0.966999C79.0968 0.498998 79.7628 0.264998 80.5908 0.264998C81.4188 0.264998 82.0848 0.498998 82.5888 0.966999C83.0928 1.417 83.3448 1.993 83.3448 2.695C83.3448 3.379 83.0928 3.955 82.5888 4.423C82.0848 4.873 81.4188 5.098 80.5908 5.098C79.7628 5.098 79.0968 4.873 78.5928 4.423C78.0888 3.955 77.8368 3.379 77.8368 2.695ZM82.8858 6.934V22H78.2688V6.934H82.8858ZM93.1205 6.745C94.6145 6.745 95.9465 7.06 97.1165 7.69C98.3045 8.302 99.2315 9.193 99.8975 10.363C100.581 11.533 100.923 12.901 100.923 14.467C100.923 16.033 100.581 17.401 99.8975 18.571C99.2315 19.741 98.3045 20.641 97.1165 21.271C95.9465 21.883 94.6145 22.189 93.1205 22.189C91.6265 22.189 90.2855 21.883 89.0975 21.271C87.9095 20.641 86.9735 19.741 86.2895 18.571C85.6235 17.401 85.2905 16.033 85.2905 14.467C85.2905 12.901 85.6235 11.533 86.2895 10.363C86.9735 9.193 87.9095 8.302 89.0975 7.69C90.2855 7.06 91.6265 6.745 93.1205 6.745ZM93.1205 10.741C92.2385 10.741 91.4915 11.065 90.8795 11.713C90.2855 12.343 89.9885 13.261 89.9885 14.467C89.9885 15.673 90.2855 16.591 90.8795 17.221C91.4915 17.851 92.2385 18.166 93.1205 18.166C94.0025 18.166 94.7405 17.851 95.3345 17.221C95.9285 16.591 96.2255 15.673 96.2255 14.467C96.2255 13.261 95.9285 12.343 95.3345 11.713C94.7405 11.065 94.0025 10.741 93.1205 10.741ZM109.042 6.745C110.194 6.745 111.184 7.006 112.012 7.528C112.84 8.05 113.443 8.761 113.821 9.661V2.02H118.438V22H113.821V19.273C113.443 20.173 112.84 20.884 112.012 21.406C111.184 21.928 110.194 22.189 109.042 22.189C107.8 22.189 106.684 21.883 105.694 21.271C104.722 20.641 103.948 19.741 103.372 18.571C102.814 17.401 102.535 16.033 102.535 14.467C102.535 12.883 102.814 11.515 103.372 10.363C103.948 9.193 104.722 8.302 105.694 7.69C106.684 7.06 107.8 6.745 109.042 6.745ZM110.527 10.795C109.537 10.795 108.736 11.119 108.124 11.767C107.53 12.415 107.233 13.315 107.233 14.467C107.233 15.619 107.53 16.519 108.124 17.167C108.736 17.815 109.537 18.139 110.527 18.139C111.499 18.139 112.291 17.806 112.903 17.14C113.533 16.474 113.848 15.583 113.848 14.467C113.848 13.333 113.533 12.442 112.903 11.794C112.291 11.128 111.499 10.795 110.527 10.795ZM121.184 2.695C121.184 1.993 121.436 1.417 121.94 0.966999C122.444 0.498998 123.11 0.264998 123.938 0.264998C124.766 0.264998 125.432 0.498998 125.936 0.966999C126.44 1.417 126.692 1.993 126.692 2.695C126.692 3.379 126.44 3.955 125.936 4.423C125.432 4.873 124.766 5.098 123.938 5.098C123.11 5.098 122.444 4.873 121.94 4.423C121.436 3.955 121.184 3.379 121.184 2.695ZM126.233 6.934V22H121.616V6.934H126.233ZM136.225 6.745C138.169 6.745 139.798 7.285 141.112 8.365C142.426 9.427 143.254 10.894 143.596 12.766H138.709C138.565 12.118 138.268 11.614 137.818 11.254C137.368 10.894 136.801 10.714 136.117 10.714C135.307 10.714 134.641 11.038 134.119 11.686C133.597 12.316 133.336 13.243 133.336 14.467C133.336 15.691 133.597 16.627 134.119 17.275C134.641 17.905 135.307 18.22 136.117 18.22C136.801 18.22 137.368 18.04 137.818 17.68C138.268 17.32 138.565 16.816 138.709 16.168H143.596C143.254 18.04 142.426 19.516 141.112 20.596C139.798 21.658 138.169 22.189 136.225 22.189C134.749 22.189 133.435 21.883 132.283 21.271C131.149 20.641 130.258 19.741 129.61 18.571C128.962 17.401 128.638 16.033 128.638 14.467C128.638 12.883 128.953 11.515 129.583 10.363C130.231 9.193 131.131 8.302 132.283 7.69C133.435 7.06 134.749 6.745 136.225 6.745ZM153.053 6.745C154.547 6.745 155.879 7.06 157.049 7.69C158.237 8.302 159.164 9.193 159.83 10.363C160.514 11.533 160.856 12.901 160.856 14.467C160.856 16.033 160.514 17.401 159.83 18.571C159.164 19.741 158.237 20.641 157.049 21.271C155.879 21.883 154.547 22.189 153.053 22.189C151.559 22.189 150.218 21.883 149.03 21.271C147.842 20.641 146.906 19.741 146.222 18.571C145.556 17.401 145.223 16.033 145.223 14.467C145.223 12.901 145.556 11.533 146.222 10.363C146.906 9.193 147.842 8.302 149.03 7.69C150.218 7.06 151.559 6.745 153.053 6.745ZM153.053 10.741C152.171 10.741 151.424 11.065 150.812 11.713C150.218 12.343 149.921 13.261 149.921 14.467C149.921 15.673 150.218 16.591 150.812 17.221C151.424 17.851 152.171 18.166 153.053 18.166C153.935 18.166 154.673 17.851 155.267 17.221C155.861 16.591 156.158 15.673 156.158 14.467C156.158 13.261 155.861 12.343 155.267 11.713C154.673 11.065 153.935 10.741 153.053 10.741Z" fill="black"/>
<path d="M163.811 19.5732C163.811 18.7871 164.073 18.1491 164.597 17.6592C165.132 17.1693 165.799 16.9243 166.596 16.9243C167.405 16.9243 168.072 17.1693 168.596 17.6592C169.131 18.1491 169.399 18.7871 169.399 19.5732C169.399 20.348 169.137 20.9803 168.613 21.4702C168.089 21.9487 167.417 22.188 166.596 22.188C165.787 22.188 165.121 21.9487 164.597 21.4702C164.073 20.9803 163.811 20.348 163.811 19.5732Z" fill="#F73AB6"/>
</svg>
