<svg width="170" height="31" viewBox="0 0 170 31" fill="none" xmlns="http://www.w3.org/2000/svg">
<path d="M15.903 15.062C15.903 15.44 15.858 15.854 15.768 16.304H5.319C5.373 17.438 5.661 18.257 6.183 18.761C6.705 19.247 7.371 19.49 8.181 19.49C8.865 19.49 9.432 19.319 9.882 18.977C10.332 18.635 10.629 18.194 10.773 17.654H15.66C15.462 18.716 15.03 19.67 14.364 20.516C13.698 21.344 12.852 22.001 11.826 22.487C10.8 22.955 9.657 23.189 8.397 23.189C6.921 23.189 5.607 22.883 4.455 22.271C3.321 21.641 2.43 20.741 1.782 19.571C1.134 18.401 0.81 17.033 0.81 15.467C0.81 13.883 1.125 12.515 1.755 11.363C2.403 10.193 3.303 9.302 4.455 8.69C5.607 8.06 6.921 7.745 8.397 7.745C9.891 7.745 11.205 8.051 12.339 8.663C13.473 9.275 14.346 10.139 14.958 11.255C15.588 12.353 15.903 13.622 15.903 15.062ZM11.232 14.36C11.25 13.37 10.98 12.632 10.422 12.146C9.882 11.642 9.207 11.39 8.397 11.39C7.551 11.39 6.849 11.642 6.291 12.146C5.733 12.65 5.418 13.388 5.346 14.36H11.232ZM22.9268 3.02V23H18.3098V3.02H22.9268ZM40.9158 7.745C42.1578 7.745 43.2648 8.06 44.2368 8.69C45.2268 9.302 46.0008 10.193 46.5588 11.363C47.1348 12.515 47.4228 13.883 47.4228 15.467C47.4228 17.033 47.1348 18.401 46.5588 19.571C46.0008 20.741 45.2268 21.641 44.2368 22.271C43.2648 22.883 42.1578 23.189 40.9158 23.189C39.7638 23.189 38.7738 22.928 37.9458 22.406C37.1178 21.884 36.5148 21.173 36.1368 20.273V30.182H31.5198V7.934H36.1368V10.661C36.5148 9.761 37.1178 9.05 37.9458 8.528C38.7738 8.006 39.7638 7.745 40.9158 7.745ZM39.4308 11.795C38.4588 11.795 37.6578 12.128 37.0278 12.794C36.4158 13.442 36.1098 14.333 36.1098 15.467C36.1098 16.583 36.4158 17.474 37.0278 18.14C37.6578 18.806 38.4588 19.139 39.4308 19.139C40.4208 19.139 41.2128 18.815 41.8068 18.167C42.4188 17.519 42.7248 16.619 42.7248 15.467C42.7248 14.315 42.4188 13.415 41.8068 12.767C41.2128 12.119 40.4208 11.795 39.4308 11.795ZM64.1286 15.062C64.1286 15.44 64.0836 15.854 63.9936 16.304H53.5446C53.5986 17.438 53.8866 18.257 54.4086 18.761C54.9306 19.247 55.5966 19.49 56.4066 19.49C57.0906 19.49 57.6576 19.319 58.1076 18.977C58.5576 18.635 58.8546 18.194 58.9986 17.654H63.8856C63.6876 18.716 63.2556 19.67 62.5896 20.516C61.9236 21.344 61.0776 22.001 60.0516 22.487C59.0256 22.955 57.8826 23.189 56.6226 23.189C55.1466 23.189 53.8326 22.883 52.6806 22.271C51.5466 21.641 50.6556 20.741 50.0076 19.571C49.3596 18.401 49.0356 17.033 49.0356 15.467C49.0356 13.883 49.3506 12.515 49.9806 11.363C50.6286 10.193 51.5286 9.302 52.6806 8.69C53.8326 8.06 55.1466 7.745 56.6226 7.745C58.1166 7.745 59.4306 8.051 60.5646 8.663C61.6986 9.275 62.5716 10.139 63.1836 11.255C63.8136 12.353 64.1286 13.622 64.1286 15.062ZM59.4576 14.36C59.4756 13.37 59.2056 12.632 58.6476 12.146C58.1076 11.642 57.4326 11.39 56.6226 11.39C55.7766 11.39 55.0746 11.642 54.5166 12.146C53.9586 12.65 53.6436 13.388 53.5716 14.36H59.4576ZM71.1524 10.769C71.7284 9.851 72.4664 9.122 73.3664 8.582C74.2844 8.042 75.2744 7.772 76.3364 7.772V12.713H75.0134C73.7894 12.713 72.8354 12.974 72.1514 13.496C71.4854 14.018 71.1524 14.9 71.1524 16.142V23H66.5354V7.934H71.1524V10.769ZM77.8368 3.695C77.8368 2.993 78.0888 2.417 78.5928 1.967C79.0968 1.499 79.7628 1.265 80.5908 1.265C81.4188 1.265 82.0848 1.499 82.5888 1.967C83.0928 2.417 83.3448 2.993 83.3448 3.695C83.3448 4.379 83.0928 4.955 82.5888 5.423C82.0848 5.873 81.4188 6.098 80.5908 6.098C79.7628 6.098 79.0968 5.873 78.5928 5.423C78.0888 4.955 77.8368 4.379 77.8368 3.695ZM82.8858 7.934V23H78.2688V7.934H82.8858ZM93.1205 7.745C94.6145 7.745 95.9465 8.06 97.1165 8.69C98.3045 9.302 99.2315 10.193 99.8975 11.363C100.581 12.533 100.923 13.901 100.923 15.467C100.923 17.033 100.581 18.401 99.8975 19.571C99.2315 20.741 98.3045 21.641 97.1165 22.271C95.9465 22.883 94.6145 23.189 93.1205 23.189C91.6265 23.189 90.2855 22.883 89.0975 22.271C87.9095 21.641 86.9735 20.741 86.2895 19.571C85.6235 18.401 85.2905 17.033 85.2905 15.467C85.2905 13.901 85.6235 12.533 86.2895 11.363C86.9735 10.193 87.9095 9.302 89.0975 8.69C90.2855 8.06 91.6265 7.745 93.1205 7.745ZM93.1205 11.741C92.2385 11.741 91.4915 12.065 90.8795 12.713C90.2855 13.343 89.9885 14.261 89.9885 15.467C89.9885 16.673 90.2855 17.591 90.8795 18.221C91.4915 18.851 92.2385 19.166 93.1205 19.166C94.0025 19.166 94.7405 18.851 95.3345 18.221C95.9285 17.591 96.2255 16.673 96.2255 15.467C96.2255 14.261 95.9285 13.343 95.3345 12.713C94.7405 12.065 94.0025 11.741 93.1205 11.741ZM96.9815 4.073L90.4745 6.854V3.722L96.9815 0.589999V4.073ZM109.042 7.745C110.194 7.745 111.184 8.006 112.012 8.528C112.84 9.05 113.443 9.761 113.821 10.661V3.02H118.438V23H113.821V20.273C113.443 21.173 112.84 21.884 112.012 22.406C111.184 22.928 110.194 23.189 109.042 23.189C107.8 23.189 106.684 22.883 105.694 22.271C104.722 21.641 103.948 20.741 103.372 19.571C102.814 18.401 102.535 17.033 102.535 15.467C102.535 13.883 102.814 12.515 103.372 11.363C103.948 10.193 104.722 9.302 105.694 8.69C106.684 8.06 107.8 7.745 109.042 7.745ZM110.527 11.795C109.537 11.795 108.736 12.119 108.124 12.767C107.53 13.415 107.233 14.315 107.233 15.467C107.233 16.619 107.53 17.519 108.124 18.167C108.736 18.815 109.537 19.139 110.527 19.139C111.499 19.139 112.291 18.806 112.903 18.14C113.533 17.474 113.848 16.583 113.848 15.467C113.848 14.333 113.533 13.442 112.903 12.794C112.291 12.128 111.499 11.795 110.527 11.795ZM121.184 3.695C121.184 2.993 121.436 2.417 121.94 1.967C122.444 1.499 123.11 1.265 123.938 1.265C124.766 1.265 125.432 1.499 125.936 1.967C126.44 2.417 126.692 2.993 126.692 3.695C126.692 4.379 126.44 4.955 125.936 5.423C125.432 5.873 124.766 6.098 123.938 6.098C123.11 6.098 122.444 5.873 121.94 5.423C121.436 4.955 121.184 4.379 121.184 3.695ZM126.233 7.934V23H121.616V7.934H126.233ZM136.225 7.745C138.169 7.745 139.798 8.285 141.112 9.365C142.426 10.427 143.254 11.894 143.596 13.766H138.709C138.565 13.118 138.268 12.614 137.818 12.254C137.368 11.894 136.801 11.714 136.117 11.714C135.307 11.714 134.641 12.038 134.119 12.686C133.597 13.316 133.336 14.243 133.336 15.467C133.336 16.691 133.597 17.627 134.119 18.275C134.641 18.905 135.307 19.22 136.117 19.22C136.801 19.22 137.368 19.04 137.818 18.68C138.268 18.32 138.565 17.816 138.709 17.168H143.596C143.254 19.04 142.426 20.516 141.112 21.596C139.798 22.658 138.169 23.189 136.225 23.189C134.749 23.189 133.435 22.883 132.283 22.271C131.149 21.641 130.258 20.741 129.61 19.571C128.962 18.401 128.638 17.033 128.638 15.467C128.638 13.883 128.953 12.515 129.583 11.363C130.231 10.193 131.131 9.302 132.283 8.69C133.435 8.06 134.749 7.745 136.225 7.745ZM153.053 7.745C154.547 7.745 155.879 8.06 157.049 8.69C158.237 9.302 159.164 10.193 159.83 11.363C160.514 12.533 160.856 13.901 160.856 15.467C160.856 17.033 160.514 18.401 159.83 19.571C159.164 20.741 158.237 21.641 157.049 22.271C155.879 22.883 154.547 23.189 153.053 23.189C151.559 23.189 150.218 22.883 149.03 22.271C147.842 21.641 146.906 20.741 146.222 19.571C145.556 18.401 145.223 17.033 145.223 15.467C145.223 13.901 145.556 12.533 146.222 11.363C146.906 10.193 147.842 9.302 149.03 8.69C150.218 8.06 151.559 7.745 153.053 7.745ZM153.053 11.741C152.171 11.741 151.424 12.065 150.812 12.713C150.218 13.343 149.921 14.261 149.921 15.467C149.921 16.673 150.218 17.591 150.812 18.221C151.424 18.851 152.171 19.166 153.053 19.166C153.935 19.166 154.673 18.851 155.267 18.221C155.861 17.591 156.158 16.673 156.158 15.467C156.158 14.261 155.861 13.343 155.267 12.713C154.673 12.065 153.935 11.741 153.053 11.741Z" fill="white"/>
<path d="M163.811 20.5732C163.811 19.7871 164.073 19.1491 164.597 18.6592C165.132 18.1693 165.799 17.9243 166.596 17.9243C167.405 17.9243 168.072 18.1693 168.596 18.6592C169.131 19.1491 169.399 19.7871 169.399 20.5732C169.399 21.348 169.137 21.9803 168.613 22.4702C168.089 22.9487 167.417 23.188 166.596 23.188C165.787 23.188 165.121 22.9487 164.597 22.4702C164.073 21.9803 163.811 21.348 163.811 20.5732Z" fill="#F73AB6"/>
</svg>
